<svg width="71" height="72" viewBox="0 0 71 72" fill="none" xmlns="http://www.w3.org/2000/svg">
<path d="M56.2084 18.1718H32.5417L26.6251 12.2551H11.8334C8.57925 12.2551 5.91675 14.9176 5.91675 18.1718V53.6718C5.91675 56.926 8.57925 59.5885 11.8334 59.5885H57.6876C60.2022 59.5885 62.1251 57.6655 62.1251 55.151V24.0885C62.1251 20.8343 59.4626 18.1718 56.2084 18.1718Z" fill="#FFA000"/>
<path d="M62.4208 27.0468H22.6312C19.8208 27.0468 17.3062 29.1176 16.8624 31.928L11.8333 59.5884H58.7228C61.5333 59.5884 64.0478 57.5176 64.4916 54.7072L68.1895 33.9988C68.9291 30.4488 66.1187 27.0468 62.4208 27.0468Z" fill="#FFCA28"/>
</svg>
