<svg width="71" height="72" viewBox="0 0 71 72" fill="none" xmlns="http://www.w3.org/2000/svg">
<g clip-path="url(#clip0)">
<path d="M65.7477 70.4218H12.2521C11.92 70.4218 11.6016 70.3039 11.3667 70.0941C11.1319 69.8843 11 69.5998 11 69.3031V1.54039C11 1.24371 11.1319 0.959177 11.3667 0.749393C11.6016 0.539609 11.92 0.421753 12.2521 0.421753L42.9795 0.421753L67 21.8811V69.3031C67 69.5998 66.868 69.8843 66.6332 70.0941C66.3983 70.3039 66.0798 70.4218 65.7477 70.4218Z" fill="#91B4F2"/>
<path d="M43.0002 0.421753L67 21.9218L48.1013 21.4218C45.2839 21.4218 43 19.4233 43 16.958L43.0002 0.421753Z" fill="#5C7CDF"/>
</g>
<defs>
<clipPath id="clip0">
<rect width="71" height="71" fill="white" transform="translate(0 0.421753)"/>
</clipPath>
</defs>
</svg>
