<svg width="718" height="718" viewBox="0 0 718 718" fill="none" xmlns="http://www.w3.org/2000/svg">
<rect width="718" height="718" rx="50" fill="white"/>
<rect width="718" height="718" rx="50" fill="white"/>
<path d="M119 479V143.605C119 95.1878 173.394 66.7104 213.185 94.2963L309.549 161.103C325.718 172.313 335.364 190.737 335.364 210.412V479C335.364 512.137 308.501 539 275.364 539H179C145.863 539 119 512.137 119 479Z" fill="#06369A"/>
<path d="M362.409 509.356V289.301C362.409 263.691 378.664 240.904 402.879 232.568L478.959 206.378C517.916 192.967 558.489 221.91 558.489 263.111V567.557C558.489 617.263 501.512 645.413 462.033 615.212L385.953 557.011C371.113 545.659 362.409 528.041 362.409 509.356Z" fill="#06369A"/>
</svg>
