<svg width="1254" height="686" viewBox="0 0 1254 686" fill="none" xmlns="http://www.w3.org/2000/svg">
<path d="M262.2 157H269.64L272.58 147.64H289.62L292.59 157H300.03L286.41 113.8H275.82L262.2 157ZM274.71 140.89L281.04 120.79L287.46 140.89H274.71ZM317.964 157.9C322.144 157.9 325.414 156.97 327.774 155.11C330.154 153.25 331.344 150.69 331.344 147.43C331.344 144.91 330.544 142.93 328.944 141.49C327.364 140.05 324.634 138.83 320.754 137.83C318.234 137.19 316.334 136.65 315.054 136.21C313.794 135.77 312.954 135.33 312.534 134.89C312.114 134.45 311.904 133.92 311.904 133.3C311.904 132.22 312.424 131.38 313.464 130.78C314.504 130.16 315.874 129.89 317.574 129.97C319.334 130.07 320.744 130.52 321.804 131.32C322.884 132.12 323.524 133.21 323.724 134.59L331.104 133.27C330.704 130.35 329.274 128.03 326.814 126.31C324.354 124.57 321.234 123.7 317.454 123.7C313.594 123.7 310.504 124.6 308.184 126.4C305.864 128.2 304.704 130.62 304.704 133.66C304.704 136.08 305.514 137.99 307.134 139.39C308.774 140.79 311.624 142.02 315.684 143.08C318.124 143.72 319.924 144.26 321.084 144.7C322.264 145.12 323.034 145.55 323.394 145.99C323.754 146.43 323.934 147.02 323.934 147.76C323.934 148.96 323.454 149.91 322.494 150.61C321.534 151.29 320.194 151.63 318.474 151.63C316.494 151.63 314.844 151.17 313.524 150.25C312.224 149.33 311.394 148.07 311.034 146.47L303.654 147.61C304.194 150.87 305.714 153.4 308.214 155.2C310.714 157 313.964 157.9 317.964 157.9ZM358.987 157.9C361.567 157.9 363.757 157.48 365.557 156.64C367.377 155.78 368.977 154.45 370.357 152.65V157H376.687V137.11C376.687 135.71 376.627 134.42 376.507 133.24C376.387 132.04 376.037 130.87 375.457 129.73C374.397 127.59 372.767 126.05 370.567 125.11C368.387 124.17 365.857 123.7 362.977 123.7C359.177 123.7 356.147 124.53 353.887 126.19C351.627 127.85 350.097 130.05 349.297 132.79L355.897 134.86C356.437 133.2 357.387 132.03 358.747 131.35C360.107 130.67 361.517 130.33 362.977 130.33C365.177 130.33 366.797 130.78 367.837 131.68C368.877 132.56 369.467 133.93 369.607 135.79C366.767 136.21 364.127 136.62 361.687 137.02C359.267 137.4 357.207 137.87 355.507 138.43C352.947 139.31 351.077 140.56 349.897 142.18C348.717 143.78 348.127 145.76 348.127 148.12C348.127 149.9 348.537 151.53 349.357 153.01C350.197 154.49 351.427 155.68 353.047 156.58C354.667 157.46 356.647 157.9 358.987 157.9ZM360.427 152.14C358.727 152.14 357.427 151.75 356.527 150.97C355.647 150.19 355.207 149.21 355.207 148.03C355.207 146.97 355.547 146.11 356.227 145.45C356.927 144.79 357.897 144.23 359.137 143.77C360.277 143.39 361.647 143.06 363.247 142.78C364.847 142.48 366.937 142.13 369.517 141.73C369.497 142.49 369.447 143.34 369.367 144.28C369.287 145.2 369.097 146.03 368.797 146.77C368.557 147.51 368.087 148.3 367.387 149.14C366.707 149.98 365.787 150.69 364.627 151.27C363.467 151.85 362.067 152.14 360.427 152.14ZM397.709 157H405.119V149.59H397.709V157ZM415.931 157H423.341V149.59H415.931V157ZM434.154 157H441.564V149.59H434.154V157ZM452.377 157H459.787V149.59H452.377V157Z" fill="#06369A"/>
<path d="M1244 25H145C139.477 25 135 29.4771 135 35V441C135 446.523 139.477 451 145 451H1244C1249.52 451 1254 446.523 1254 441V35C1254 29.4772 1249.52 25 1244 25Z" fill="#E6E6E6"/>
<path d="M1212 61H177C171.477 61 167 65.4772 167 71V407C167 412.523 171.477 417 177 417H1212C1217.52 417 1222 412.523 1222 407V71C1222 65.4772 1217.52 61 1212 61Z" fill="white"/>
<path d="M1244 0H145C139.477 0 135 4.47715 135 10V28C135 33.5228 139.477 38 145 38H1244C1249.52 38 1254 33.5228 1254 28V10C1254 4.47715 1249.52 0 1244 0Z" fill="#06369A"/>
<path d="M159.5 26C164.194 26 168 22.6421 168 18.5C168 14.3579 164.194 11 159.5 11C154.806 11 151 14.3579 151 18.5C151 22.6421 154.806 26 159.5 26Z" fill="white"/>
<path d="M193 26C197.971 26 202 22.6421 202 18.5C202 14.3579 197.971 11 193 11C188.029 11 184 14.3579 184 18.5C184 22.6421 188.029 26 193 26Z" fill="white"/>
<path d="M226 26C230.971 26 235 22.6421 235 18.5C235 14.3579 230.971 11 226 11C221.029 11 217 14.3579 217 18.5C217 22.6421 221.029 26 226 26Z" fill="white"/>
<path d="M264.4 181H273.08L276.51 170.08H296.39L299.855 181H308.535L292.645 130.6H280.29L264.4 181ZM278.995 162.205L286.38 138.755L293.87 162.205H278.995ZM329.458 182.05C334.335 182.05 338.15 180.965 340.903 178.795C343.68 176.625 345.068 173.638 345.068 169.835C345.068 166.895 344.135 164.585 342.268 162.905C340.425 161.225 337.24 159.802 332.713 158.635C329.773 157.888 327.556 157.258 326.063 156.745C324.593 156.232 323.613 155.718 323.123 155.205C322.633 154.692 322.388 154.073 322.388 153.35C322.388 152.09 322.995 151.11 324.208 150.41C325.421 149.687 327.02 149.372 329.003 149.465C331.056 149.582 332.701 150.107 333.938 151.04C335.198 151.973 335.945 153.245 336.178 154.855L344.788 153.315C344.321 149.908 342.653 147.202 339.783 145.195C336.913 143.165 333.273 142.15 328.863 142.15C324.36 142.15 320.755 143.2 318.048 145.3C315.341 147.4 313.988 150.223 313.988 153.77C313.988 156.593 314.933 158.822 316.823 160.455C318.736 162.088 322.061 163.523 326.798 164.76C329.645 165.507 331.745 166.137 333.098 166.65C334.475 167.14 335.373 167.642 335.793 168.155C336.213 168.668 336.423 169.357 336.423 170.22C336.423 171.62 335.863 172.728 334.743 173.545C333.623 174.338 332.06 174.735 330.053 174.735C327.743 174.735 325.818 174.198 324.278 173.125C322.761 172.052 321.793 170.582 321.373 168.715L312.763 170.045C313.393 173.848 315.166 176.8 318.083 178.9C321 181 324.791 182.05 329.458 182.05ZM377.318 182.05C380.328 182.05 382.883 181.56 384.983 180.58C387.106 179.577 388.973 178.025 390.583 175.925V181H397.968V157.795C397.968 156.162 397.898 154.657 397.758 153.28C397.618 151.88 397.209 150.515 396.533 149.185C395.296 146.688 393.394 144.892 390.828 143.795C388.284 142.698 385.333 142.15 381.973 142.15C377.539 142.15 374.004 143.118 371.368 145.055C368.731 146.992 366.946 149.558 366.013 152.755L373.713 155.17C374.343 153.233 375.451 151.868 377.038 151.075C378.624 150.282 380.269 149.885 381.973 149.885C384.539 149.885 386.429 150.41 387.643 151.46C388.856 152.487 389.544 154.085 389.708 156.255C386.394 156.745 383.314 157.223 380.468 157.69C377.644 158.133 375.241 158.682 373.258 159.335C370.271 160.362 368.089 161.82 366.713 163.71C365.336 165.577 364.648 167.887 364.648 170.64C364.648 172.717 365.126 174.618 366.083 176.345C367.063 178.072 368.498 179.46 370.388 180.51C372.278 181.537 374.588 182.05 377.318 182.05ZM378.998 175.33C377.014 175.33 375.498 174.875 374.448 173.965C373.421 173.055 372.908 171.912 372.908 170.535C372.908 169.298 373.304 168.295 374.098 167.525C374.914 166.755 376.046 166.102 377.493 165.565C378.823 165.122 380.421 164.737 382.288 164.41C384.154 164.06 386.593 163.652 389.603 163.185C389.579 164.072 389.521 165.063 389.428 166.16C389.334 167.233 389.113 168.202 388.763 169.065C388.483 169.928 387.934 170.85 387.118 171.83C386.324 172.81 385.251 173.638 383.898 174.315C382.544 174.992 380.911 175.33 378.998 175.33ZM442.793 175.75L448.043 170.535L436.073 158.95L448.043 147.365L442.793 142.15L425.993 158.95L442.793 175.75ZM465.732 181H474.202V161.785C474.202 159.592 474.599 157.643 475.392 155.94C476.209 154.237 477.48 152.918 479.207 151.985C480.374 151.308 481.68 150.912 483.127 150.795C484.574 150.655 485.869 150.748 487.012 151.075V143.2C485.309 142.943 483.559 142.978 481.762 143.305C479.965 143.608 478.367 144.238 476.967 145.195C476.174 145.685 475.462 146.28 474.832 146.98C474.202 147.657 473.654 148.415 473.187 149.255V143.2H465.732V181ZM509.702 182.05C513.482 182.05 516.784 181.21 519.607 179.53C522.431 177.827 524.624 175.482 526.187 172.495C527.774 169.485 528.567 166.02 528.567 162.1C528.567 158.203 527.786 154.762 526.222 151.775C524.659 148.765 522.466 146.408 519.642 144.705C516.819 143.002 513.506 142.15 509.702 142.15C505.992 142.15 502.726 142.99 499.902 144.67C497.079 146.35 494.874 148.683 493.287 151.67C491.701 154.657 490.907 158.133 490.907 162.1C490.907 165.997 491.677 169.45 493.217 172.46C494.781 175.447 496.974 177.792 499.797 179.495C502.621 181.198 505.922 182.05 509.702 182.05ZM509.702 174.14C506.459 174.14 503.997 173.055 502.317 170.885C500.661 168.692 499.832 165.763 499.832 162.1C499.832 158.53 500.626 155.637 502.212 153.42C503.822 151.18 506.319 150.06 509.702 150.06C513.016 150.06 515.501 151.157 517.157 153.35C518.814 155.52 519.642 158.437 519.642 162.1C519.642 165.647 518.814 168.54 517.157 170.78C515.524 173.02 513.039 174.14 509.702 174.14ZM536.979 181H545.414V129.55H536.979V181ZM573.083 182.05C576.723 182.05 580.048 181.117 583.058 179.25C586.091 177.36 588.331 174.7 589.778 171.27L581.448 168.75C579.768 172.343 576.816 174.14 572.593 174.14C569.723 174.14 567.46 173.312 565.803 171.655C564.146 169.975 563.155 167.572 562.828 164.445H590.198C590.525 159.895 590.023 155.952 588.693 152.615C587.363 149.278 585.321 146.7 582.568 144.88C579.838 143.06 576.513 142.15 572.593 142.15C568.883 142.15 565.616 142.99 562.793 144.67C559.97 146.327 557.765 148.683 556.178 151.74C554.591 154.797 553.798 158.39 553.798 162.52C553.798 166.347 554.603 169.73 556.213 172.67C557.846 175.61 560.11 177.908 563.003 179.565C565.896 181.222 569.256 182.05 573.083 182.05ZM572.943 149.535C575.556 149.535 577.563 150.223 578.963 151.6C580.386 152.953 581.285 155.112 581.658 158.075H563.038C564.041 152.382 567.343 149.535 572.943 149.535ZM611.132 175.75L605.882 170.535L617.852 158.95L605.882 147.365L611.132 142.15L627.932 158.95L611.132 175.75ZM268.6 261H277.035V210.6H268.6V261ZM323.596 261H330.176L338.716 234.995L347.291 261H353.871L365.421 223.2H357.161L349.741 247.455L342.286 223.2H335.181L327.691 247.455L320.306 223.2L312.046 223.13L323.596 261ZM380.189 262.05C383.199 262.05 385.754 261.56 387.854 260.58C389.977 259.577 391.844 258.025 393.454 255.925V261H400.839V237.795C400.839 236.162 400.769 234.657 400.629 233.28C400.489 231.88 400.08 230.515 399.404 229.185C398.167 226.688 396.265 224.892 393.699 223.795C391.155 222.698 388.204 222.15 384.844 222.15C380.41 222.15 376.875 223.118 374.239 225.055C371.602 226.992 369.817 229.558 368.884 232.755L376.584 235.17C377.214 233.233 378.322 231.868 379.909 231.075C381.495 230.282 383.14 229.885 384.844 229.885C387.41 229.885 389.3 230.41 390.514 231.46C391.727 232.487 392.415 234.085 392.579 236.255C389.265 236.745 386.185 237.223 383.339 237.69C380.515 238.133 378.112 238.682 376.129 239.335C373.142 240.362 370.96 241.82 369.584 243.71C368.207 245.577 367.519 247.887 367.519 250.64C367.519 252.717 367.997 254.618 368.954 256.345C369.934 258.072 371.369 259.46 373.259 260.51C375.149 261.537 377.459 262.05 380.189 262.05ZM381.869 255.33C379.885 255.33 378.369 254.875 377.319 253.965C376.292 253.055 375.779 251.912 375.779 250.535C375.779 249.298 376.175 248.295 376.969 247.525C377.785 246.755 378.917 246.102 380.364 245.565C381.694 245.122 383.292 244.737 385.159 244.41C387.025 244.06 389.464 243.652 392.474 243.185C392.45 244.072 392.392 245.063 392.299 246.16C392.205 247.233 391.984 248.202 391.634 249.065C391.354 249.928 390.805 250.85 389.989 251.83C389.195 252.81 388.122 253.638 386.769 254.315C385.415 254.992 383.782 255.33 381.869 255.33ZM409.881 261H418.421V241.575C418.421 238.518 418.852 236.162 419.716 234.505C420.602 232.825 421.722 231.67 423.076 231.04C424.452 230.387 425.852 230.06 427.276 230.06C429.282 230.06 430.881 230.503 432.071 231.39C433.261 232.253 434.136 233.362 434.696 234.715C435.279 236.045 435.652 237.433 435.816 238.88C436.002 240.327 436.096 241.633 436.096 242.8V261H444.636V239.895C444.636 239.008 444.554 237.83 444.391 236.36C444.251 234.89 443.924 233.338 443.411 231.705C442.897 230.072 442.104 228.532 441.031 227.085C439.957 225.615 438.499 224.425 436.656 223.515C434.836 222.582 432.537 222.115 429.761 222.115C427.031 222.115 424.627 222.593 422.551 223.55C420.497 224.483 418.782 225.767 417.406 227.4V223.2H409.881V261ZM475.924 261V253.93C473.567 254.28 471.467 254.373 469.624 254.21C467.781 254.047 466.439 253.265 465.599 251.865C465.156 251.142 464.911 250.208 464.864 249.065C464.841 247.898 464.829 246.568 464.829 245.075V229.815H475.924V223.2H464.829V212.7H456.429V223.2H449.569V229.815H456.429V245.565C456.429 247.735 456.452 249.672 456.499 251.375C456.546 253.055 457.001 254.712 457.864 256.345C458.844 258.142 460.279 259.46 462.169 260.3C464.059 261.117 466.194 261.548 468.574 261.595C470.977 261.665 473.427 261.467 475.924 261ZM520.221 261V253.93C517.864 254.28 515.764 254.373 513.921 254.21C512.078 254.047 510.736 253.265 509.896 251.865C509.453 251.142 509.208 250.208 509.161 249.065C509.138 247.898 509.126 246.568 509.126 245.075V229.815H520.221V223.2H509.126V212.7H500.726V223.2H493.866V229.815H500.726V245.565C500.726 247.735 500.749 249.672 500.796 251.375C500.843 253.055 501.298 254.712 502.161 256.345C503.141 258.142 504.576 259.46 506.466 260.3C508.356 261.117 510.491 261.548 512.871 261.595C515.274 261.665 517.724 261.467 520.221 261ZM543.13 262.05C546.91 262.05 550.212 261.21 553.035 259.53C555.858 257.827 558.052 255.482 559.615 252.495C561.202 249.485 561.995 246.02 561.995 242.1C561.995 238.203 561.213 234.762 559.65 231.775C558.087 228.765 555.893 226.408 553.07 224.705C550.247 223.002 546.933 222.15 543.13 222.15C539.42 222.15 536.153 222.99 533.33 224.67C530.507 226.35 528.302 228.683 526.715 231.67C525.128 234.657 524.335 238.133 524.335 242.1C524.335 245.997 525.105 249.45 526.645 252.46C528.208 255.447 530.402 257.792 533.225 259.495C536.048 261.198 539.35 262.05 543.13 262.05ZM543.13 254.14C539.887 254.14 537.425 253.055 535.745 250.885C534.088 248.692 533.26 245.763 533.26 242.1C533.26 238.53 534.053 235.637 535.64 233.42C537.25 231.18 539.747 230.06 543.13 230.06C546.443 230.06 548.928 231.157 550.585 233.35C552.242 235.52 553.07 238.437 553.07 242.1C553.07 245.647 552.242 248.54 550.585 250.78C548.952 253.02 546.467 254.14 543.13 254.14ZM605.42 255.75L610.67 250.535L598.7 238.95L610.67 227.365L605.42 222.15L588.62 238.95L605.42 255.75ZM628.359 261H636.829V241.785C636.829 239.592 637.226 237.643 638.019 235.94C638.836 234.237 640.107 232.918 641.834 231.985C643.001 231.308 644.307 230.912 645.754 230.795C647.201 230.655 648.496 230.748 649.639 231.075V223.2C647.936 222.943 646.186 222.978 644.389 223.305C642.592 223.608 640.994 224.238 639.594 225.195C638.801 225.685 638.089 226.28 637.459 226.98C636.829 227.657 636.281 228.415 635.814 229.255V223.2H628.359V261ZM672.819 262.05C676.459 262.05 679.784 261.117 682.794 259.25C685.828 257.36 688.068 254.7 689.514 251.27L681.184 248.75C679.504 252.343 676.553 254.14 672.329 254.14C669.459 254.14 667.196 253.312 665.539 251.655C663.883 249.975 662.891 247.572 662.564 244.445H689.934C690.261 239.895 689.759 235.952 688.429 232.615C687.099 229.278 685.058 226.7 682.304 224.88C679.574 223.06 676.249 222.15 672.329 222.15C668.619 222.15 665.353 222.99 662.529 224.67C659.706 226.327 657.501 228.683 655.914 231.74C654.328 234.797 653.534 238.39 653.534 242.52C653.534 246.347 654.339 249.73 655.949 252.67C657.583 255.61 659.846 257.908 662.739 259.565C665.633 261.222 668.993 262.05 672.819 262.05ZM672.679 229.535C675.293 229.535 677.299 230.223 678.699 231.6C680.123 232.953 681.021 235.112 681.394 238.075H662.774C663.778 232.382 667.079 229.535 672.679 229.535ZM712.899 262.05C714.859 262.05 716.644 261.782 718.254 261.245C719.887 260.732 721.345 260.008 722.629 259.075V277.8H731.134V223.2H723.679V225.93C722.349 224.717 720.809 223.783 719.059 223.13C717.309 222.477 715.36 222.15 713.214 222.15C709.644 222.15 706.54 223.013 703.904 224.74C701.29 226.467 699.26 228.835 697.814 231.845C696.367 234.855 695.644 238.273 695.644 242.1C695.644 245.88 696.355 249.275 697.779 252.285C699.202 255.295 701.209 257.675 703.799 259.425C706.389 261.175 709.422 262.05 712.899 262.05ZM714.194 254.49C712 254.49 710.192 253.942 708.769 252.845C707.345 251.725 706.284 250.232 705.584 248.365C704.907 246.498 704.569 244.41 704.569 242.1C704.569 239.813 704.919 237.737 705.619 235.87C706.342 233.98 707.427 232.487 708.874 231.39C710.344 230.27 712.21 229.71 714.474 229.71C717.694 229.71 720.027 230.853 721.474 233.14C722.944 235.427 723.679 238.413 723.679 242.1C723.679 245.763 722.944 248.75 721.474 251.06C720.027 253.347 717.6 254.49 714.194 254.49ZM755.122 262.085C757.852 262.085 760.244 261.618 762.297 260.685C764.374 259.728 766.1 258.433 767.477 256.8V261H774.932V223.2H766.462V242.625C766.462 245.682 766.019 248.05 765.132 249.73C764.269 251.387 763.16 252.542 761.807 253.195C760.454 253.825 759.054 254.14 757.607 254.14C755.6 254.14 754.002 253.708 752.812 252.845C751.622 251.958 750.735 250.85 750.152 249.52C749.592 248.167 749.219 246.767 749.032 245.32C748.869 243.873 748.787 242.567 748.787 241.4V223.2H740.247V244.305C740.247 245.192 740.317 246.37 740.457 247.84C740.62 249.31 740.959 250.862 741.472 252.495C741.985 254.128 742.779 255.68 743.852 257.15C744.925 258.597 746.372 259.787 748.192 260.72C750.035 261.63 752.345 262.085 755.122 262.085ZM785.465 217.46H793.9V209.725H785.465V217.46ZM785.465 261H793.9V223.2H785.465V261ZM804.384 261H812.854V241.785C812.854 239.592 813.251 237.643 814.044 235.94C814.861 234.237 816.133 232.918 817.859 231.985C819.026 231.308 820.333 230.912 821.779 230.795C823.226 230.655 824.521 230.748 825.664 231.075V223.2C823.961 222.943 822.211 222.978 820.414 223.305C818.618 223.608 817.019 224.238 815.619 225.195C814.826 225.685 814.114 226.28 813.484 226.98C812.854 227.657 812.306 228.415 811.839 229.255V223.2H804.384V261ZM848.845 262.05C852.485 262.05 855.81 261.117 858.82 259.25C861.853 257.36 864.093 254.7 865.54 251.27L857.21 248.75C855.53 252.343 852.578 254.14 848.355 254.14C845.485 254.14 843.221 253.312 841.565 251.655C839.908 249.975 838.916 247.572 838.59 244.445H865.96C866.286 239.895 865.785 235.952 864.455 232.615C863.125 229.278 861.083 226.7 858.33 224.88C855.6 223.06 852.275 222.15 848.355 222.15C844.645 222.15 841.378 222.99 838.555 224.67C835.731 226.327 833.526 228.683 831.94 231.74C830.353 234.797 829.56 238.39 829.56 242.52C829.56 246.347 830.365 249.73 831.975 252.67C833.608 255.61 835.871 257.908 838.765 259.565C841.658 261.222 845.018 262.05 848.845 262.05ZM848.705 229.535C851.318 229.535 853.325 230.223 854.725 231.6C856.148 232.953 857.046 235.112 857.42 238.075H838.8C839.803 232.382 843.105 229.535 848.705 229.535ZM872.674 261H881.179V237.725C881.179 235.368 881.82 233.455 883.104 231.985C884.41 230.515 886.137 229.78 888.284 229.78C890.5 229.78 892.25 230.515 893.534 231.985C894.817 233.455 895.459 235.508 895.459 238.145V261H903.859V237.725C903.859 235.228 904.535 233.28 905.889 231.88C907.265 230.48 908.969 229.78 910.999 229.78C913.169 229.78 914.895 230.515 916.179 231.985C917.485 233.432 918.139 235.45 918.139 238.04V261H926.574V235.905C926.574 231.798 925.454 228.497 923.214 226C920.997 223.503 917.8 222.255 913.624 222.255C911.174 222.255 908.934 222.792 906.904 223.865C904.874 224.938 903.275 226.408 902.109 228.275C901.105 226.432 899.682 224.973 897.839 223.9C895.995 222.803 893.744 222.255 891.084 222.255C888.82 222.255 886.732 222.71 884.819 223.62C882.929 224.507 881.365 225.732 880.129 227.295V223.2H872.674V261ZM952.273 262.05C955.913 262.05 959.238 261.117 962.248 259.25C965.281 257.36 967.521 254.7 968.968 251.27L960.638 248.75C958.958 252.343 956.006 254.14 951.783 254.14C948.913 254.14 946.649 253.312 944.993 251.655C943.336 249.975 942.344 247.572 942.018 244.445H969.388C969.714 239.895 969.213 235.952 967.883 232.615C966.553 229.278 964.511 226.7 961.758 224.88C959.028 223.06 955.703 222.15 951.783 222.15C948.073 222.15 944.806 222.99 941.983 224.67C939.159 226.327 936.954 228.683 935.368 231.74C933.781 234.797 932.988 238.39 932.988 242.52C932.988 246.347 933.793 249.73 935.403 252.67C937.036 255.61 939.299 257.908 942.193 259.565C945.086 261.222 948.446 262.05 952.273 262.05ZM952.133 229.535C954.746 229.535 956.753 230.223 958.153 231.6C959.576 232.953 960.474 235.112 960.848 238.075H942.228C943.231 232.382 946.533 229.535 952.133 229.535ZM976.101 261H984.641V241.575C984.641 238.518 985.073 236.162 985.936 234.505C986.823 232.825 987.943 231.67 989.296 231.04C990.673 230.387 992.073 230.06 993.496 230.06C995.503 230.06 997.101 230.503 998.291 231.39C999.481 232.253 1000.36 233.362 1000.92 234.715C1001.5 236.045 1001.87 237.433 1002.04 238.88C1002.22 240.327 1002.32 241.633 1002.32 242.8V261H1010.86V239.895C1010.86 239.008 1010.77 237.83 1010.61 236.36C1010.47 234.89 1010.14 233.338 1009.63 231.705C1009.12 230.072 1008.32 228.532 1007.25 227.085C1006.18 225.615 1004.72 224.425 1002.88 223.515C1001.06 222.582 998.758 222.115 995.981 222.115C993.251 222.115 990.848 222.593 988.771 223.55C986.718 224.483 985.003 225.767 983.626 227.4V223.2H976.101V261ZM1042.14 261V253.93C1039.79 254.28 1037.69 254.373 1035.84 254.21C1034 254.047 1032.66 253.265 1031.82 251.865C1031.38 251.142 1031.13 250.208 1031.08 249.065C1031.06 247.898 1031.05 246.568 1031.05 245.075V229.815H1042.14V223.2H1031.05V212.7H1022.65V223.2H1015.79V229.815H1022.65V245.565C1022.65 247.735 1022.67 249.672 1022.72 251.375C1022.77 253.055 1023.22 254.712 1024.08 256.345C1025.06 258.142 1026.5 259.46 1028.39 260.3C1030.28 261.117 1032.41 261.548 1034.79 261.595C1037.2 261.665 1039.65 261.467 1042.14 261ZM1063.4 255.75L1058.15 250.535L1070.12 238.95L1058.15 227.365L1063.4 222.15L1080.2 238.95L1063.4 255.75ZM286.555 342.05C290.008 342.05 293.24 341.467 296.25 340.3C299.26 339.133 301.687 337.383 303.53 335.05C305.397 332.717 306.33 329.812 306.33 326.335C306.33 323.838 305.863 321.773 304.93 320.14C304.02 318.483 302.842 317.153 301.395 316.15C299.972 315.147 298.49 314.365 296.95 313.805C295.433 313.245 294.057 312.802 292.82 312.475L283.79 309.955C282.67 309.652 281.55 309.278 280.43 308.835C279.31 308.368 278.377 307.75 277.63 306.98C276.883 306.187 276.51 305.172 276.51 303.935C276.51 302.628 276.942 301.485 277.805 300.505C278.692 299.525 279.847 298.767 281.27 298.23C282.717 297.693 284.28 297.448 285.96 297.495C288.55 297.565 290.883 298.323 292.96 299.77C295.037 301.217 296.343 303.27 296.88 305.93L305.945 304.355C304.825 299.688 302.527 296.083 299.05 293.54C295.573 290.973 291.245 289.667 286.065 289.62C282.658 289.597 279.555 290.145 276.755 291.265C273.978 292.362 271.762 294.007 270.105 296.2C268.472 298.393 267.655 301.112 267.655 304.355C267.655 306.572 268.017 308.438 268.74 309.955C269.487 311.448 270.432 312.673 271.575 313.63C272.742 314.587 273.967 315.345 275.25 315.905C276.557 316.465 277.77 316.908 278.89 317.235L291.91 321.085C295.643 322.205 297.51 324.142 297.51 326.895C297.51 328.435 297.008 329.753 296.005 330.85C295.025 331.923 293.742 332.74 292.155 333.3C290.568 333.86 288.877 334.14 287.08 334.14C284.047 334.14 281.363 333.323 279.03 331.69C276.72 330.057 275.192 327.747 274.445 324.76L265.695 326.09C266.232 329.38 267.445 332.227 269.335 334.63C271.248 337.01 273.675 338.842 276.615 340.125C279.578 341.408 282.892 342.05 286.555 342.05ZM330.601 342.05C334.381 342.05 337.683 341.21 340.506 339.53C343.329 337.827 345.523 335.482 347.086 332.495C348.673 329.485 349.466 326.02 349.466 322.1C349.466 318.203 348.684 314.762 347.121 311.775C345.558 308.765 343.364 306.408 340.541 304.705C337.718 303.002 334.404 302.15 330.601 302.15C326.891 302.15 323.624 302.99 320.801 304.67C317.978 306.35 315.773 308.683 314.186 311.67C312.599 314.657 311.806 318.133 311.806 322.1C311.806 325.997 312.576 329.45 314.116 332.46C315.679 335.447 317.873 337.792 320.696 339.495C323.519 341.198 326.821 342.05 330.601 342.05ZM330.601 334.14C327.358 334.14 324.896 333.055 323.216 330.885C321.559 328.692 320.731 325.763 320.731 322.1C320.731 318.53 321.524 315.637 323.111 313.42C324.721 311.18 327.218 310.06 330.601 310.06C333.914 310.06 336.399 311.157 338.056 313.35C339.713 315.52 340.541 318.437 340.541 322.1C340.541 325.647 339.713 328.54 338.056 330.78C336.423 333.02 333.938 334.14 330.601 334.14ZM393.346 341V333.93C390.989 334.28 388.889 334.373 387.046 334.21C385.203 334.047 383.861 333.265 383.021 331.865C382.578 331.142 382.333 330.208 382.286 329.065C382.263 327.898 382.251 326.568 382.251 325.075V309.815H393.346V303.2H382.251V292.7H373.851V303.2H366.991V309.815H373.851V325.565C373.851 327.735 373.874 329.672 373.921 331.375C373.968 333.055 374.423 334.712 375.286 336.345C376.266 338.142 377.701 339.46 379.591 340.3C381.481 341.117 383.616 341.548 385.996 341.595C388.399 341.665 390.849 341.467 393.346 341ZM401.404 341H409.944V321.575C409.944 318.518 410.376 316.162 411.239 314.505C412.126 312.825 413.246 311.67 414.599 311.04C415.976 310.387 417.376 310.06 418.799 310.06C420.806 310.06 422.404 310.503 423.594 311.39C424.784 312.253 425.659 313.362 426.219 314.715C426.803 316.045 427.176 317.433 427.339 318.88C427.526 320.327 427.619 321.633 427.619 322.8V341H436.159V319.895C436.159 319.008 436.078 317.83 435.914 316.36C435.774 314.89 435.448 313.338 434.934 311.705C434.421 310.072 433.628 308.532 432.554 307.085C431.481 305.615 430.023 304.425 428.179 303.515C426.359 302.582 424.061 302.115 421.284 302.115C418.554 302.115 416.151 302.593 414.074 303.55C412.021 304.483 410.306 305.767 408.929 307.4V290.6H401.404V341ZM455.863 342.05C458.873 342.05 461.428 341.56 463.528 340.58C465.651 339.577 467.518 338.025 469.128 335.925V341H476.513V317.795C476.513 316.162 476.443 314.657 476.303 313.28C476.163 311.88 475.754 310.515 475.078 309.185C473.841 306.688 471.939 304.892 469.373 303.795C466.829 302.698 463.878 302.15 460.518 302.15C456.084 302.15 452.549 303.118 449.913 305.055C447.276 306.992 445.491 309.558 444.558 312.755L452.258 315.17C452.888 313.233 453.996 311.868 455.583 311.075C457.169 310.282 458.814 309.885 460.518 309.885C463.084 309.885 464.974 310.41 466.188 311.46C467.401 312.487 468.089 314.085 468.253 316.255C464.939 316.745 461.859 317.223 459.013 317.69C456.189 318.133 453.786 318.682 451.803 319.335C448.816 320.362 446.634 321.82 445.258 323.71C443.881 325.577 443.193 327.887 443.193 330.64C443.193 332.717 443.671 334.618 444.628 336.345C445.608 338.072 447.043 339.46 448.933 340.51C450.823 341.537 453.133 342.05 455.863 342.05ZM457.543 335.33C455.559 335.33 454.043 334.875 452.993 333.965C451.966 333.055 451.453 331.912 451.453 330.535C451.453 329.298 451.849 328.295 452.643 327.525C453.459 326.755 454.591 326.102 456.038 325.565C457.368 325.122 458.966 324.737 460.833 324.41C462.699 324.06 465.138 323.652 468.148 323.185C468.124 324.072 468.066 325.063 467.973 326.16C467.879 327.233 467.658 328.202 467.308 329.065C467.028 329.928 466.479 330.85 465.663 331.83C464.869 332.81 463.796 333.638 462.443 334.315C461.089 334.992 459.456 335.33 457.543 335.33ZM507.78 341V333.93C505.423 334.28 503.323 334.373 501.48 334.21C499.636 334.047 498.295 333.265 497.455 331.865C497.011 331.142 496.766 330.208 496.72 329.065C496.696 327.898 496.685 326.568 496.685 325.075V309.815H507.78V303.2H496.685V292.7H488.285V303.2H481.425V309.815H488.285V325.565C488.285 327.735 488.308 329.672 488.355 331.375C488.401 333.055 488.856 334.712 489.72 336.345C490.7 338.142 492.135 339.46 494.025 340.3C495.915 341.117 498.05 341.548 500.43 341.595C502.833 341.665 505.283 341.467 507.78 341ZM530.621 341H539.056V290.6H530.621V341ZM579.969 342.05C584.193 342.05 587.763 341.023 590.679 338.97C593.596 336.893 595.638 333.93 596.804 330.08L588.194 328.155C587.541 330.092 586.561 331.573 585.254 332.6C583.971 333.627 582.209 334.14 579.969 334.14C576.796 334.14 574.404 333.032 572.794 330.815C571.208 328.598 570.403 325.693 570.379 322.1C570.403 318.623 571.173 315.753 572.689 313.49C574.229 311.203 576.656 310.06 579.969 310.06C581.906 310.06 583.633 310.632 585.149 311.775C586.666 312.895 587.751 314.47 588.404 316.5L596.804 314.225C595.918 310.492 593.981 307.552 590.994 305.405C588.008 303.235 584.368 302.15 580.074 302.15C576.248 302.15 572.946 303.013 570.169 304.74C567.393 306.443 565.246 308.8 563.729 311.81C562.236 314.797 561.478 318.227 561.454 322.1C561.478 325.903 562.213 329.31 563.659 332.32C565.129 335.33 567.241 337.71 569.994 339.46C572.748 341.187 576.073 342.05 579.969 342.05ZM613.773 342.05C616.783 342.05 619.338 341.56 621.438 340.58C623.561 339.577 625.428 338.025 627.038 335.925V341H634.423V317.795C634.423 316.162 634.353 314.657 634.213 313.28C634.073 311.88 633.664 310.515 632.988 309.185C631.751 306.688 629.849 304.892 627.283 303.795C624.739 302.698 621.788 302.15 618.428 302.15C613.994 302.15 610.459 303.118 607.823 305.055C605.186 306.992 603.401 309.558 602.468 312.755L610.168 315.17C610.798 313.233 611.906 311.868 613.493 311.075C615.079 310.282 616.724 309.885 618.428 309.885C620.994 309.885 622.884 310.41 624.098 311.46C625.311 312.487 625.999 314.085 626.163 316.255C622.849 316.745 619.769 317.223 616.923 317.69C614.099 318.133 611.696 318.682 609.713 319.335C606.726 320.362 604.544 321.82 603.168 323.71C601.791 325.577 601.103 327.887 601.103 330.64C601.103 332.717 601.581 334.618 602.538 336.345C603.518 338.072 604.953 339.46 606.843 340.51C608.733 341.537 611.043 342.05 613.773 342.05ZM615.453 335.33C613.469 335.33 611.953 334.875 610.903 333.965C609.876 333.055 609.363 331.912 609.363 330.535C609.363 329.298 609.759 328.295 610.553 327.525C611.369 326.755 612.501 326.102 613.948 325.565C615.278 325.122 616.876 324.737 618.743 324.41C620.609 324.06 623.048 323.652 626.058 323.185C626.034 324.072 625.976 325.063 625.883 326.16C625.789 327.233 625.568 328.202 625.218 329.065C624.938 329.928 624.389 330.85 623.573 331.83C622.779 332.81 621.706 333.638 620.353 334.315C618.999 334.992 617.366 335.33 615.453 335.33ZM643.465 341H652.005V321.575C652.005 318.518 652.436 316.162 653.3 314.505C654.186 312.825 655.306 311.67 656.66 311.04C658.036 310.387 659.436 310.06 660.86 310.06C662.866 310.06 664.465 310.503 665.655 311.39C666.845 312.253 667.72 313.362 668.28 314.715C668.863 316.045 669.236 317.433 669.4 318.88C669.586 320.327 669.68 321.633 669.68 322.8V341H678.22V319.895C678.22 319.008 678.138 317.83 677.975 316.36C677.835 314.89 677.508 313.338 676.995 311.705C676.481 310.072 675.688 308.532 674.615 307.085C673.541 305.615 672.083 304.425 670.24 303.515C668.42 302.582 666.121 302.115 663.345 302.115C660.615 302.115 658.211 302.593 656.135 303.55C654.081 304.483 652.366 305.767 650.99 307.4V303.2H643.465V341ZM723.067 335.75L728.317 330.535L716.347 318.95L728.317 307.365L723.067 302.15L706.267 318.95L723.067 335.75ZM746.005 341H754.475V321.785C754.475 319.592 754.872 317.643 755.665 315.94C756.482 314.237 757.754 312.918 759.48 311.985C760.647 311.308 761.954 310.912 763.4 310.795C764.847 310.655 766.142 310.748 767.285 311.075V303.2C765.582 302.943 763.832 302.978 762.035 303.305C760.239 303.608 758.64 304.238 757.24 305.195C756.447 305.685 755.735 306.28 755.105 306.98C754.475 307.657 753.927 308.415 753.46 309.255V303.2H746.005V341ZM790.466 342.05C794.106 342.05 797.431 341.117 800.441 339.25C803.474 337.36 805.714 334.7 807.161 331.27L798.831 328.75C797.151 332.343 794.199 334.14 789.976 334.14C787.106 334.14 784.843 333.312 783.186 331.655C781.529 329.975 780.538 327.572 780.211 324.445H807.581C807.908 319.895 807.406 315.952 806.076 312.615C804.746 309.278 802.704 306.7 799.951 304.88C797.221 303.06 793.896 302.15 789.976 302.15C786.266 302.15 782.999 302.99 780.176 304.67C777.353 306.327 775.148 308.683 773.561 311.74C771.974 314.797 771.181 318.39 771.181 322.52C771.181 326.347 771.986 329.73 773.596 332.67C775.229 335.61 777.493 337.908 780.386 339.565C783.279 341.222 786.639 342.05 790.466 342.05ZM790.326 309.535C792.939 309.535 794.946 310.223 796.346 311.6C797.769 312.953 798.668 315.112 799.041 318.075H780.421C781.424 312.382 784.726 309.535 790.326 309.535ZM825.277 342.05C828.287 342.05 830.842 341.56 832.942 340.58C835.065 339.577 836.932 338.025 838.542 335.925V341H845.927V317.795C845.927 316.162 845.857 314.657 845.717 313.28C845.577 311.88 845.168 310.515 844.492 309.185C843.255 306.688 841.353 304.892 838.787 303.795C836.243 302.698 833.292 302.15 829.932 302.15C825.498 302.15 821.963 303.118 819.327 305.055C816.69 306.992 814.905 309.558 813.972 312.755L821.672 315.17C822.302 313.233 823.41 311.868 824.997 311.075C826.583 310.282 828.228 309.885 829.932 309.885C832.498 309.885 834.388 310.41 835.602 311.46C836.815 312.487 837.503 314.085 837.667 316.255C834.353 316.745 831.273 317.223 828.427 317.69C825.603 318.133 823.2 318.682 821.217 319.335C818.23 320.362 816.048 321.82 814.672 323.71C813.295 325.577 812.607 327.887 812.607 330.64C812.607 332.717 813.085 334.618 814.042 336.345C815.022 338.072 816.457 339.46 818.347 340.51C820.237 341.537 822.547 342.05 825.277 342.05ZM826.957 335.33C824.973 335.33 823.457 334.875 822.407 333.965C821.38 333.055 820.867 331.912 820.867 330.535C820.867 329.298 821.263 328.295 822.057 327.525C822.873 326.755 824.005 326.102 825.452 325.565C826.782 325.122 828.38 324.737 830.247 324.41C832.113 324.06 834.552 323.652 837.562 323.185C837.538 324.072 837.48 325.063 837.387 326.16C837.293 327.233 837.072 328.202 836.722 329.065C836.442 329.928 835.893 330.85 835.077 331.83C834.283 332.81 833.21 333.638 831.857 334.315C830.503 334.992 828.87 335.33 826.957 335.33ZM869.634 342.05C874.51 342.05 878.325 340.965 881.079 338.795C883.855 336.625 885.244 333.638 885.244 329.835C885.244 326.895 884.31 324.585 882.444 322.905C880.6 321.225 877.415 319.802 872.889 318.635C869.949 317.888 867.732 317.258 866.239 316.745C864.769 316.232 863.789 315.718 863.299 315.205C862.809 314.692 862.564 314.073 862.564 313.35C862.564 312.09 863.17 311.11 864.384 310.41C865.597 309.687 867.195 309.372 869.179 309.465C871.232 309.582 872.877 310.107 874.114 311.04C875.374 311.973 876.12 313.245 876.354 314.855L884.964 313.315C884.497 309.908 882.829 307.202 879.959 305.195C877.089 303.165 873.449 302.15 869.039 302.15C864.535 302.15 860.93 303.2 858.224 305.3C855.517 307.4 854.164 310.223 854.164 313.77C854.164 316.593 855.109 318.822 856.999 320.455C858.912 322.088 862.237 323.523 866.974 324.76C869.82 325.507 871.92 326.137 873.274 326.65C874.65 327.14 875.549 327.642 875.969 328.155C876.389 328.668 876.599 329.357 876.599 330.22C876.599 331.62 876.039 332.728 874.919 333.545C873.799 334.338 872.235 334.735 870.229 334.735C867.919 334.735 865.994 334.198 864.454 333.125C862.937 332.052 861.969 330.582 861.549 328.715L852.939 330.045C853.569 333.848 855.342 336.8 858.259 338.9C861.175 341 864.967 342.05 869.634 342.05ZM909.605 342.05C913.385 342.05 916.686 341.21 919.51 339.53C922.333 337.827 924.526 335.482 926.09 332.495C927.676 329.485 928.47 326.02 928.47 322.1C928.47 318.203 927.688 314.762 926.125 311.775C924.561 308.765 922.368 306.408 919.545 304.705C916.721 303.002 913.408 302.15 909.605 302.15C905.895 302.15 902.628 302.99 899.805 304.67C896.981 306.35 894.776 308.683 893.19 311.67C891.603 314.657 890.81 318.133 890.81 322.1C890.81 325.997 891.58 329.45 893.12 332.46C894.683 335.447 896.876 337.792 899.7 339.495C902.523 341.198 905.825 342.05 909.605 342.05ZM909.605 334.14C906.361 334.14 903.9 333.055 902.22 330.885C900.563 328.692 899.735 325.763 899.735 322.1C899.735 318.53 900.528 315.637 902.115 313.42C903.725 311.18 906.221 310.06 909.605 310.06C912.918 310.06 915.403 311.157 917.06 313.35C918.716 315.52 919.545 318.437 919.545 322.1C919.545 325.647 918.716 328.54 917.06 330.78C915.426 333.02 912.941 334.14 909.605 334.14ZM936.111 341H944.651V321.575C944.651 318.518 945.083 316.162 945.946 314.505C946.833 312.825 947.953 311.67 949.306 311.04C950.683 310.387 952.083 310.06 953.506 310.06C955.513 310.06 957.111 310.503 958.301 311.39C959.491 312.253 960.366 313.362 960.926 314.715C961.51 316.045 961.883 317.433 962.046 318.88C962.233 320.327 962.326 321.633 962.326 322.8V341H970.866V319.895C970.866 319.008 970.785 317.83 970.621 316.36C970.481 314.89 970.155 313.338 969.641 311.705C969.128 310.072 968.335 308.532 967.261 307.085C966.188 305.615 964.73 304.425 962.886 303.515C961.066 302.582 958.768 302.115 955.991 302.115C953.261 302.115 950.858 302.593 948.781 303.55C946.728 304.483 945.013 305.767 943.636 307.4V303.2H936.111V341ZM993.125 335.75L987.875 330.535L999.845 318.95L987.875 307.365L993.125 302.15L1009.92 318.95L993.125 335.75Z" fill="#06369A"/>
<path d="M221.203 442.298C221.217 439.781 220.699 437.289 219.683 434.987C218.667 432.684 217.176 430.622 215.308 428.935C213.439 427.249 211.236 425.976 208.841 425.201C206.447 424.425 203.916 424.164 201.413 424.435C200.622 424.525 199.837 424.67 199.065 424.868L138.601 373.041L142.214 353.565L112.413 343.907L103.427 375.118C102.364 378.864 102.538 382.852 103.921 386.492C105.305 390.132 107.825 393.228 111.107 395.322L185.489 442.367C185.489 442.952 185.52 443.537 185.58 444.119C185.852 446.621 186.649 449.038 187.92 451.211C189.191 453.384 190.906 455.263 192.954 456.727C195.002 458.191 197.336 459.205 199.804 459.704C202.271 460.202 204.816 460.174 207.271 459.62C207.985 459.462 208.688 459.259 209.376 459.013C212.819 457.768 215.798 455.499 217.912 452.511C220.026 449.522 221.175 445.958 221.203 442.298Z" fill="#9F616A"/>
<path d="M70.8818 502.406H148.84C148.84 504.646 229.185 506.465 229.185 506.465C230.446 507.415 231.596 508.504 232.611 509.713C235.663 513.352 237.331 517.953 237.321 522.703V525.951C237.319 531.333 235.18 536.495 231.374 540.301C227.568 544.107 222.406 546.246 217.023 546.248H70.8818C65.5 546.243 60.34 544.103 56.5345 540.298C52.729 536.492 50.589 531.332 50.5844 525.951V522.703C50.5918 517.322 52.7327 512.164 56.5376 508.359C60.3425 504.554 65.5009 502.413 70.8818 502.406Z" fill="#3F3D56"/>
<path d="M155.682 545.442H134.573V681.84H155.682V545.442Z" fill="#3F3D56"/>
<path d="M215.763 683.537C215.763 686.091 183.775 684.525 144.316 684.525C104.857 684.525 72.8687 686.091 72.8687 683.537C72.8687 680.983 104.857 660.731 144.316 660.731C183.775 660.731 215.763 680.983 215.763 683.537Z" fill="#3F3D56"/>
<path d="M196.707 665.112L216.613 665.11L226.084 613.478L196.703 613.48L196.707 665.112Z" fill="#9F616A"/>
<path d="M191.629 684.409L255.819 684.406V683.595C255.819 680.314 255.172 677.065 253.917 674.034C252.661 671.002 250.821 668.248 248.501 665.928C246.181 663.608 243.427 661.768 240.396 660.512C237.365 659.257 234.116 658.611 230.835 658.61H230.833L191.628 658.612L191.629 684.409Z" fill="#2F2E41"/>
<path d="M226.481 633.094L266.168 544.098C269.482 536.597 269.848 528.123 267.194 520.364C264.541 512.605 259.062 506.13 251.849 502.229L165.766 456.069L126.484 452.727L90.2496 449.434L89.9883 449.876C89.6541 450.441 81.8634 463.897 87.1296 478.653C91.1242 489.845 101.515 498.587 118.012 504.637C156.52 518.756 201.003 530.824 218.341 535.356C219.107 535.552 219.823 535.907 220.442 536.4C221.061 536.892 221.568 537.51 221.931 538.213C222.295 538.908 222.511 539.67 222.566 540.452C222.621 541.234 222.513 542.019 222.25 542.758L185.379 625.595C184.994 626.646 184.855 627.771 184.974 628.883C185.092 629.996 185.465 631.067 186.063 632.013C186.66 632.959 187.467 633.755 188.421 634.339C189.375 634.924 190.451 635.282 191.565 635.386L219.115 637.392C219.349 637.414 219.582 637.425 219.814 637.425C221.225 637.424 222.605 637.015 223.788 636.246C224.972 635.478 225.907 634.383 226.481 633.094Z" fill="#CBCBCB"/>
<path d="M183.716 665.112L203.622 665.11L213.094 613.478L183.713 613.48L183.716 665.112Z" fill="#9F616A"/>
<path d="M178.639 684.409L242.828 684.406V683.595C242.828 680.314 242.182 677.065 240.927 674.034C239.671 671.002 237.831 668.248 235.511 665.928C233.191 663.608 230.437 661.768 227.406 660.512C224.375 659.257 221.126 658.611 217.845 658.61H217.842L178.638 658.612L178.639 684.409Z" fill="#2F2E41"/>
<path d="M211.867 637.966L251.554 548.969C254.867 541.468 255.234 532.994 252.58 525.235C249.926 517.476 244.447 511.001 237.234 507.101L151.151 460.94L111.87 457.599L83.4892 455.137L83.4931 454.748C83.1589 455.312 75.3682 468.769 80.6344 483.524C84.629 494.716 86.9004 503.458 103.398 509.508C141.905 523.627 186.389 535.695 203.727 540.227C204.493 540.423 205.209 540.779 205.828 541.271C206.447 541.764 206.954 542.382 207.317 543.084C207.681 543.779 207.897 544.541 207.952 545.323C208.007 546.106 207.899 546.891 207.636 547.629L170.765 630.467C170.38 631.517 170.241 632.642 170.36 633.755C170.478 634.867 170.851 635.938 171.448 636.884C172.046 637.83 172.853 638.626 173.807 639.211C174.761 639.796 175.836 640.154 176.951 640.257L204.501 642.263C204.735 642.285 204.968 642.296 205.199 642.296C206.61 642.296 207.991 641.886 209.174 641.118C210.358 640.349 211.293 639.254 211.867 637.966Z" fill="#CBCBCB"/>
<path d="M137.075 456.761C138.977 455.415 166.303 469.751 171.174 458.385C148.441 401.552 164.107 377.01 150.181 344.419C147.729 338.798 144.034 333.806 139.375 329.818C134.715 325.83 129.213 322.95 123.28 321.394L87.1516 319.571L86.9645 319.661C78.8118 323.654 72.163 330.169 68.004 338.238C63.845 346.307 62.3971 355.502 63.8752 364.459C64.0037 399.928 85.2256 426.98 77.8052 452.706C77.494 453.782 77.4032 454.909 77.5382 456.02C77.6732 457.132 78.0313 458.205 78.5909 459.174C79.1335 460.112 79.8623 460.928 80.7324 461.573C81.6026 462.218 82.5956 462.677 83.6502 462.924L131.355 456.56C132.469 456.825 133.627 456.85 134.752 456.632C135.877 456.415 136.942 455.96 137.877 455.298L137.075 456.761Z" fill="#2F2E41"/>
<path d="M99.2088 306.077C121.235 306.077 139.091 288.221 139.091 266.195C139.091 244.168 121.235 226.312 99.2088 226.312C77.1825 226.312 59.3267 244.168 59.3267 266.195C59.3267 288.221 77.1825 306.077 99.2088 306.077Z" fill="#9F616A"/>
<path d="M86.5054 302.801C88.6244 303.728 92.9638 286.844 91.02 283.467C88.1292 278.444 88.3001 278.48 86.3811 275.158C84.4621 271.835 84.0327 267.287 86.5178 264.363C89.0028 261.44 94.7536 261.827 95.8878 265.493C95.1582 258.531 102.045 252.934 108.867 251.361C115.688 249.788 122.884 250.765 129.743 249.365C137.704 247.741 145.986 241.068 142.81 232.314C142.265 230.857 141.449 229.516 140.405 228.362C136.736 224.236 131.603 222.474 126.584 220.77C116.142 217.226 105.416 213.638 94.3965 214.029C76.2911 214.672 59.177 227.188 53.077 244.247C52.3176 246.375 51.7293 248.561 51.3177 250.783C47.5355 271.12 59.3452 291.18 78.5264 298.924L86.5054 302.801Z" fill="#2F2E41"/>
<path d="M295.654 366.935L300.228 394.091C300.279 394.394 300.245 394.705 300.131 394.99L264.251 484.643C264.109 484.998 263.849 485.294 263.516 485.48C263.182 485.667 262.794 485.734 262.417 485.67C262.04 485.605 261.697 485.413 261.444 485.126C261.191 484.839 261.045 484.474 261.029 484.092L259.509 448.065C259.499 447.826 259.54 447.587 259.63 447.365L292.457 366.583C292.594 366.246 292.837 365.963 293.15 365.777C293.462 365.59 293.827 365.511 294.189 365.551C294.55 365.591 294.889 365.747 295.154 365.997C295.418 366.247 295.594 366.576 295.654 366.935Z" fill="#3F3D56"/>
<path d="M293.114 369.019L297.46 392.349L265.619 474.16L261.485 447.843L293.114 369.019Z" fill="#06369A"/>
<path d="M153.804 484.226C154.588 487.284 257.444 490.594 258.511 489.669C259.468 488.484 260.297 487.201 260.985 485.842C262.063 483.917 263.061 481.986 263.061 481.986L261.371 449.457L160.049 438.629C160.049 438.629 155.567 465.775 154.159 478.246C153.842 480.222 153.723 482.226 153.804 484.226Z" fill="#3F3D56"/>
<path opacity="0.1" d="M248.114 452.898L248.123 480.923L203.309 477.737L205.292 449.853L248.114 452.898Z" fill="black"/>
<path opacity="0.1" d="M189.717 457.753L189.988 457.719L187.872 469.633L162.975 467.863L163.825 455.912L189.717 457.753Z" fill="black"/>
<path opacity="0.1" d="M153.804 484.226C154.588 487.284 257.444 490.594 258.511 489.669C259.468 488.484 260.297 487.201 260.985 485.842L154.159 478.246C153.842 480.222 153.723 482.226 153.804 484.226Z" fill="black"/>
<path d="M112.503 435.65L199.267 451.841C199.484 452.385 199.729 452.917 200.001 453.435C201.18 455.653 202.812 457.598 204.792 459.144C206.772 460.69 209.055 461.802 211.492 462.407C213.94 463.023 216.49 463.109 218.974 462.659C221.457 462.209 223.815 461.234 225.891 459.799C229.651 457.217 232.282 453.295 233.243 448.837C234.204 444.378 233.424 439.721 231.061 435.819C228.699 431.918 224.933 429.067 220.537 427.853C216.141 426.638 211.446 427.151 207.416 429.287C206.714 429.664 206.039 430.089 205.396 430.559L130.035 404.815L126.178 385.386L94.9185 387.454L98.1575 420.024C98.5505 423.825 100.158 427.398 102.743 430.213C105.327 433.027 108.75 434.934 112.503 435.65Z" fill="#9F616A"/>
<path d="M93.8596 401.981L139.282 387.053L128.686 356.63C127.279 352.59 124.49 349.178 120.81 346.996C117.131 344.814 112.798 344.003 108.579 344.706C104.311 345.418 100.437 347.632 97.6584 350.949C94.8796 354.266 93.3786 358.468 93.4264 362.795L93.8596 401.981Z" fill="#2F2E41"/>
<path d="M382 686H1C0.734784 686 0.480429 685.895 0.292892 685.707C0.105356 685.52 0 685.265 0 685C0 684.735 0.105356 684.48 0.292892 684.293C0.480429 684.105 0.734784 684 1 684H382C382.265 684 382.52 684.105 382.707 684.293C382.895 684.48 383 684.735 383 685C383 685.265 382.895 685.52 382.707 685.707C382.52 685.895 382.265 686 382 686Z" fill="#CBCBCB"/>
<path d="M530.207 654.494C548.481 663.951 556.605 684.542 556.605 684.542C556.605 684.542 535.103 689.8 516.829 680.343C498.555 670.886 490.43 650.294 490.43 650.294C490.43 650.294 511.933 645.036 530.207 654.494Z" fill="#F1F1F1"/>
<path d="M524.363 661.306C535.268 678.755 556.449 685.187 556.449 685.187C556.449 685.187 559.95 663.329 549.046 645.88C538.141 628.432 516.96 621.999 516.96 621.999C516.96 621.999 513.458 643.857 524.363 661.306Z" fill="#F1F1F1"/>
<path d="M590 685.603H476C475.735 685.603 475.48 685.498 475.293 685.311C475.105 685.123 475 684.869 475 684.603C475 684.338 475.105 684.084 475.293 683.896C475.48 683.709 475.735 683.603 476 683.603H590C590.265 683.603 590.52 683.709 590.707 683.896C590.895 684.084 591 684.338 591 684.603C591 684.869 590.895 685.123 590.707 685.311C590.52 685.498 590.265 685.603 590 685.603Z" fill="#CBCBCB"/>
</svg>
